<?xml version="1.0" encoding="UTF-8" standalone="no"?>
<!-- Created with Inkscape (http://www.inkscape.org/) -->

<svg
   xmlns:osb="http://www.openswatchbook.org/uri/2009/osb"
   xmlns:dc="http://purl.org/dc/elements/1.1/"
   xmlns:cc="http://creativecommons.org/ns#"
   xmlns:rdf="http://www.w3.org/1999/02/22-rdf-syntax-ns#"
   xmlns:svg="http://www.w3.org/2000/svg"
   xmlns="http://www.w3.org/2000/svg"
   xmlns:sodipodi="http://sodipodi.sourceforge.net/DTD/sodipodi-0.dtd"
   xmlns:inkscape="http://www.inkscape.org/namespaces/inkscape"
   width="210mm"
   height="297mm"
   viewBox="0 0 744.09448819 1052.3622047"
   id="svg2"
   version="1.1"
   inkscape:version="0.91 r13725"
   sodipodi:docname="logo.svg">
  <defs
     id="defs4">
    <linearGradient
       id="linearGradient5024"
       osb:paint="solid">
      <stop
         style="stop-color:#ffffff;stop-opacity:1;"
         offset="0"
         id="stop5026" />
    </linearGradient>
  </defs>
  <sodipodi:namedview
     id="base"
     pagecolor="#ffffff"
     bordercolor="#666666"
     borderopacity="1.0"
     inkscape:pageopacity="0.0"
     inkscape:pageshadow="2"
     inkscape:zoom="2"
     inkscape:cx="490.9167"
     inkscape:cy="799.36318"
     inkscape:document-units="px"
     inkscape:current-layer="layer1"
     showgrid="false"
     inkscape:window-width="1920"
     inkscape:window-height="984"
     inkscape:window-x="0"
     inkscape:window-y="31"
     inkscape:window-maximized="1" />
  <metadata
     id="metadata7">
    <rdf:RDF>
      <cc:Work
         rdf:about="">
        <dc:format>image/svg+xml</dc:format>
        <dc:type
           rdf:resource="http://purl.org/dc/dcmitype/StillImage" />
        <dc:title></dc:title>
      </cc:Work>
    </rdf:RDF>
  </metadata>
  <g
     inkscape:label="Capa 1"
     inkscape:groupmode="layer"
     id="layer1">
    <text
       xml:space="preserve"
       style="font-style:oblique;font-variant:normal;font-weight:bold;font-stretch:normal;font-size:80px;line-height:125%;font-family:Sawasdee;-inkscape-font-specification:'Sawasdee Bold Oblique';letter-spacing:0px;word-spacing:0px;fill:#0044aa;fill-opacity:1;stroke:none;stroke-width:1px;stroke-linecap:butt;stroke-linejoin:miter;stroke-opacity:1;"
       x="253.52614"
       y="181.04539"
       id="text3342"
       sodipodi:linespacing="125%"><tspan
         sodipodi:role="line"
         id="tspan3344"
         x="253.52614"
         y="181.04539"
         style="font-size:70px;fill:#0044aa;fill-opacity:1;">STE SAS </tspan></text>
    <text
       xml:space="preserve"
       style="font-style:normal;font-variant:normal;font-weight:bold;font-stretch:normal;font-size:80px;line-height:125%;font-family:Sawasdee;-inkscape-font-specification:'Sawasdee Bold';letter-spacing:0px;word-spacing:0px;fill:#0044aa;fill-opacity:1;stroke:none;stroke-width:1px;stroke-linecap:butt;stroke-linejoin:miter;stroke-opacity:1;"
       x="175.38977"
       y="223.73943"
       id="text3346"
       sodipodi:linespacing="125%"><tspan
         sodipodi:role="line"
         id="tspan3348"
         x="175.38977"
         y="223.73943"
         style="font-style:oblique;font-variant:normal;font-weight:bold;font-stretch:normal;font-size:22.5px;font-family:Sawasdee;-inkscape-font-specification:'Sawasdee Bold Oblique';fill:#0044aa;fill-opacity:1;">SERVICIO TRABAJO EN EQUIPO </tspan></text>
    <rect
       style="fill:#d50737;fill-opacity:1"
       id="rect3414"
       width="335.90112"
       height="8.0522661"
       x="201.59006"
       y="185.85561"
       transform="matrix(1,0,-0.11375269,0.9935091,0,0)" />
    <rect
       style="fill:#d50737;fill-opacity:1"
       id="rect3414-5"
       width="335.90112"
       height="8.0522661"
       x="201.93858"
       y="196.0201"
       transform="matrix(1,0,-0.11375269,0.9935091,0,0)" />
    <circle
       style="fill:#ff0000;fill-opacity:1"
       id="path3539"
       cx="195.53693"
       cy="505.35443"
       r="85" />
    <circle
       style="fill:#800000;fill-opacity:1;stroke:#ffffff;stroke-width:6;stroke-miterlimit:4;stroke-dasharray:none;stroke-opacity:1"
       id="path3541-5-4"
       cx="278.61676"
       cy="429.82526"
       r="40" />
    <circle
       style="fill:#800000;fill-opacity:1;stroke:#ffffff;stroke-width:6;stroke-miterlimit:4;stroke-dasharray:none;stroke-opacity:1"
       id="path3541-5-4-2"
       cx="278.61676"
       cy="585.72614"
       r="40" />
    <circle
       style="fill:#800000;fill-opacity:1;stroke:#ffffff;stroke-width:6;stroke-miterlimit:4;stroke-dasharray:none;stroke-opacity:1"
       id="path3541-5-4-7"
       cx="116.30524"
       cy="584.22919"
       r="40" />
    <circle
       style="fill:#800000;fill-opacity:1;stroke:#ffffff;stroke-width:6;stroke-miterlimit:4;stroke-dasharray:none;stroke-opacity:1"
       id="path3541-5-4-21"
       cx="116.30524"
       cy="429.82526"
       r="40" />
    <rect
       style="fill:#ffffff;fill-opacity:1;stroke:none;stroke-width:6;stroke-miterlimit:4;stroke-dasharray:none;stroke-opacity:1"
       id="rect6727"
       width="5.9878898"
       height="170.65488"
       x="192.54298"
       y="420.02698" />
    <rect
       style="fill:#ffffff;fill-opacity:1;stroke:none;stroke-width:6;stroke-miterlimit:4;stroke-dasharray:none;stroke-opacity:1"
       id="rect6727-3"
       width="5.9878898"
       height="171.25366"
       x="-508.34836"
       y="109.9101"
       transform="matrix(0,-1,1,0,0,0)" />
  </g>
  <g
     inkscape:groupmode="layer"
     id="layer2"
     inkscape:label="Capa 2">
    <path
       style="fill:#0044aa;fill-opacity:1;stroke:none;stroke-width:6;stroke-miterlimit:4;stroke-dasharray:none;stroke-opacity:1"
       d="m 190.96691,132.36862 c -3.8579,-0.9339 -7.43255,-4.50603 -8.46119,-8.45522 -0.37004,-1.42067 -0.36597,-4.45421 0.008,-5.8896 0.81438,-3.12661 3.30686,-6.14482 6.22196,-7.53431 1.9407,-0.92504 3.12098,-1.19408 5.23852,-1.19408 4.91791,0 9.33616,3.1617 10.98438,7.86044 0.66166,1.88625 0.81018,4.50903 0.36322,6.41469 -1.00885,4.30146 -4.3631,7.72754 -8.62655,8.8113 -1.40956,0.3583 -4.22032,0.35181 -5.72825,-0.0132 l 0,1e-5 z"
       id="path6759"
       inkscape:connector-curvature="0" />
    <path
       style="fill:#d50737;fill-opacity:1;stroke:none;stroke-width:6;stroke-miterlimit:4;stroke-dasharray:none;stroke-opacity:1"
       d="m 243.0035,132.39443 c -3.95241,-0.95701 -7.52747,-4.49708 -8.55201,-8.46832 -0.39127,-1.5166 -0.39127,-4.36808 0,-5.88467 0.5036,-1.95199 1.53971,-3.70736 3.13685,-5.31439 2.29201,-2.30622 4.99691,-3.43164 8.24777,-3.43164 1.98436,0 3.45756,0.35083 5.34632,1.27319 1.77577,0.86719 3.87749,2.88746 4.87516,4.68619 1.42099,2.56207 1.8248,5.80111 1.08422,8.69683 -1.04006,4.06661 -4.38879,7.38016 -8.51967,8.43022 -1.36902,0.348 -4.20716,0.35436 -5.61864,0.0126 l 0,1e-5 z"
       id="path6761"
       inkscape:connector-curvature="0" />
    <path
       style="fill:#d50737;fill-opacity:1;stroke:none;stroke-width:6;stroke-miterlimit:4;stroke-dasharray:none;stroke-opacity:1"
       d="m 220.35165,131.11112 0,-13.05777 1.43074,0.12094 c 2.87333,0.24289 6.04776,1.1004 8.77263,2.36975 l 1.48499,0.69178 0,0.80139 c 0,0.44076 0.17296,1.48343 0.38435,2.31703 1.27884,5.04307 5.05325,8.779 10.17164,10.06795 0.88628,0.22319 1.67627,0.50275 1.75555,0.62126 0.27237,0.40713 1.25991,3.66552 1.48809,4.90996 0.12561,0.68501 0.28714,1.91373 0.35896,2.73048 l 0.13057,1.48499 -12.98876,0 -12.98876,0 0,-13.05776 z"
       id="path6763"
       inkscape:connector-curvature="0" />
    <path
       style="fill:#0044aa;fill-opacity:1;stroke:none;stroke-width:6;stroke-miterlimit:4;stroke-dasharray:none;stroke-opacity:1"
       d="m 192.25857,142.62143 c 0.16854,-2.02095 0.56351,-3.88342 1.28705,-6.06914 l 0.58672,-1.77242 0.70275,-0.003 c 2.23538,-0.0106 5.91456,-1.48178 7.84751,-3.138 2.93207,-2.51229 4.67948,-5.87598 4.96466,-9.55672 l 0.11534,-1.48872 0.78819,-0.34865 c 2.33465,-1.03273 5.53942,-1.84356 8.14566,-2.06091 l 1.54746,-0.12905 0,13.0572 0,13.05719 -13.05719,0 -13.0572,0 0.12905,-1.54745 z"
       id="path6765"
       inkscape:connector-curvature="0" />
    <path
       style="fill:#f98514;fill-opacity:1;stroke:none;stroke-width:6;stroke-miterlimit:4;stroke-dasharray:none;stroke-opacity:1"
       d="m 217.28585,172.20509 c -2.68585,-0.19897 -6.27171,-1.0673 -8.52778,-2.06504 l -0.96118,-0.42508 -0.3371,-1.78322 c -1.02214,-5.40692 -4.91886,-9.57479 -10.21929,-10.93042 -0.8121,-0.2077 -1.71922,-0.37764 -2.01582,-0.37764 -0.64574,0 -0.83566,-0.31911 -1.6631,-2.79437 -0.69965,-2.09297 -1.14881,-4.18839 -1.31226,-6.12196 l -0.12094,-1.43074 13.05777,0 13.05776,0 0,13.02965 c 0,7.16631 -0.0216,13.01458 -0.0479,12.99617 -0.0263,-0.0184 -0.43592,-0.0622 -0.91016,-0.0973 z"
       id="path6767"
       inkscape:connector-curvature="0" />
    <path
       style="fill:#f98514;fill-opacity:1;stroke:none;stroke-width:6;stroke-miterlimit:4;stroke-dasharray:none;stroke-opacity:1"
       d="m 191.03494,181.81763 c -4.09124,-1.11902 -7.48849,-4.49434 -8.51043,-8.4555 -0.38882,-1.5071 -0.39279,-4.4361 -0.008,-5.91336 0.55234,-2.12061 1.38429,-3.51672 3.14459,-5.27701 2.49213,-2.49214 4.76967,-3.44237 8.24038,-3.43805 3.27144,0.004 5.86164,1.06173 8.14989,3.32787 1.66084,1.64479 2.64327,3.33875 3.18983,5.50011 1.47702,5.84082 -1.7878,11.8929 -7.50414,13.91061 -1.80237,0.63619 -5.0306,0.80252 -6.70212,0.34533 z"
       id="path6769"
       inkscape:connector-curvature="0" />
    <path
       style="fill:#008000;fill-opacity:1;stroke:none;stroke-width:6;stroke-miterlimit:4;stroke-dasharray:none;stroke-opacity:1"
       d="m 243.96738,182.48226 c -4.25434,-0.75869 -7.6229,-3.55124 -9.18901,-7.61773 -0.65616,-1.70375 -0.82864,-4.89335 -0.36489,-6.74773 1.06447,-4.25645 4.34213,-7.51862 8.66523,-8.62428 5.09688,-1.30357 10.61581,1.18421 13.06329,5.88856 0.97239,1.86904 1.37591,3.4851 1.37965,5.52539 0.009,5.04074 -3.45722,9.71548 -8.29218,11.18246 -1.54678,0.46931 -3.86457,0.64256 -5.26209,0.39333 z"
       id="path6771"
       inkscape:connector-curvature="0" />
    <path
       style="fill:#008000;fill-opacity:1;stroke:none;stroke-width:6;stroke-miterlimit:4;stroke-dasharray:none;stroke-opacity:1"
       d="m 220.35165,159.23916 0,-12.96254 12.96254,0 12.96253,0 -0.12193,1.67661 c -0.0671,0.92214 -0.33492,2.5505 -0.59523,3.6186 -0.47552,1.95105 -1.72653,5.34779 -2.0412,5.54227 -0.0927,0.0573 -0.66544,0.23226 -1.27268,0.38878 -0.60724,0.15652 -1.83699,0.64464 -2.73278,1.08471 -1.31335,0.64521 -1.96521,1.13544 -3.3666,2.53183 -1.9904,1.98328 -3.09157,3.86128 -3.73174,6.3643 -0.2089,0.8168 -0.45166,1.55694 -0.53948,1.64475 -0.0878,0.0878 -0.97043,0.51061 -1.96139,0.93955 -2.27467,0.98462 -5.69532,1.8592 -7.87747,2.0141 l -1.68457,0.11957 0,-12.96253 z"
       id="path6773"
       inkscape:connector-curvature="0" />
  </g>
</svg>
